<?xml version="1.0" encoding="utf-8"?>
<!-- Generator: Adobe Illustrator 23.0.4, SVG Export Plug-In . SVG Version: 6.00 Build 0)  -->
<svg version="1.1" id="Capa_1" xmlns="http://www.w3.org/2000/svg" xmlns:xlink="http://www.w3.org/1999/xlink" x="0px" y="0px"
	 viewBox="0 0 654.1 171.1" style="enable-background:new 0 0 654.1 171.1;" xml:space="preserve">
<style type="text/css">
	.st0{fill:url(#SVGID_1_);}
	.st1{opacity:0.1;fill:none;stroke:#FFFFFF;stroke-width:2;stroke-miterlimit:10;}
	.st2{fill:url(#SVGID_2_);}
	.st3{fill:none;stroke:url(#SVGID_3_);stroke-width:20;stroke-linecap:round;stroke-miterlimit:10;}
	.st4{fill:#FFFFFF;}
	.st5{fill:#FFFFFF;stroke:#000000;stroke-width:120;stroke-linecap:round;stroke-linejoin:round;stroke-miterlimit:10;}
	.st6{fill:#00FFFF;}
	.st7{opacity:0.4;fill:#FFFFFF;}
	.st8{fill:none;stroke:#000000;stroke-width:120;stroke-linecap:round;stroke-linejoin:round;stroke-miterlimit:10;}
	.st9{fill:none;stroke:#FFFFFF;stroke-width:8;stroke-linecap:round;stroke-linejoin:round;stroke-miterlimit:10;}
	.st10{fill:url(#SVGID_4_);}
	.st11{fill:url(#SVGID_5_);}
	.st12{fill:url(#SVGID_6_);}
	.st13{fill:#1F2164;}
	.st14{fill:#2E2E7E;}
	.st15{fill:#4344AD;}
	.st16{fill:#8569D7;}
	.st17{fill:#69D1EA;}
	.st18{fill:#E34D7D;}
	.st19{opacity:0.5;fill:#FFFFFF;}
	.st20{fill:url(#SVGID_7_);}
	.st21{fill:url(#SVGID_8_);}
	.st22{fill:url(#SVGID_9_);}
	.st23{fill:url(#SVGID_10_);}
	.st24{fill:none;stroke:url(#SVGID_11_);stroke-width:20;stroke-linecap:round;stroke-miterlimit:10;}
	.st25{fill:none;stroke:url(#SVGID_12_);stroke-width:20;stroke-linecap:round;stroke-miterlimit:10;}
	.st26{fill:url(#SVGID_13_);}
</style>
<g>
	<g>
		<g>
			<path class="st15" d="M256.5,109.9c2.6,9.3,3.6,13.6,4.6,19.1h0.5c0.8-5.3,1.8-9.9,4.3-19.1l9.1-33.8h18.9l-22.3,70.7h-21.1
				l-24-70.7h20.4L256.5,109.9z"/>
			<path class="st15" d="M312.7,46.5c6.4,0,11.1,4.8,11.1,11.3c0,5.9-4.8,10.6-11.1,10.6c-6,0-10.8-4.8-10.8-10.6
				C301.9,51.3,306.7,46.5,312.7,46.5z M303.6,76.2h18.9v70.7h-18.9V76.2z"/>
			<path class="st15" d="M341.5,124.2V90.6h-9V78.8l9.1-3.8l6.5-16.6h12v17.8h17.6v14.4h-17.6v34.2c0,4.9,2.8,7.4,7.4,7.4
				c3,0,6.9-1,9.6-3.1l4.9,14.1c-2.4,1.8-7.9,4.4-19.6,4.4C350.2,147.5,341.5,141.3,341.5,124.2z"/>
			<path class="st15" d="M399.9,46.5c6.4,0,11.1,4.8,11.1,11.3c0,5.9-4.8,10.6-11.1,10.6c-6,0-10.8-4.8-10.8-10.6
				C389.1,51.3,393.9,46.5,399.9,46.5z M390.8,76.2h18.9v70.7h-18.9V76.2z"/>
			<path class="st15" d="M424.4,96.8c0-11.5,9.9-21.9,26.3-21.9c12.8,0,20.9,4.5,25.5,9.9l-12.1,11.9c-2.5-2.9-7.4-6.6-13.9-6.6
				c-4.3,0-7,2.3-7,5.5c0,10.6,33.3,6.9,33.3,30.5c0,9.4-7.4,22-27.9,22c-15.5,0-24.9-6.5-28.8-10.6l11.3-13
				c3.1,3.6,10,8.8,18.5,8.8c5.9,0,8.1-2.8,8.1-6C457.7,116.9,424.4,120.3,424.4,96.8z"/>
			<path class="st15" d="M509.5,146.8c-3.3,0-7.4-0.4-10.6-1v25.3h-7.3V79.4h5.5l1.6,7.1h0.5c3.4-4.6,9.3-8.4,17.9-8.4
				c15.5,0,25,10.1,25,32.3C542.1,133.7,529.7,146.8,509.5,146.8z M509.5,140.1c17,0,25.1-10,25.1-28.6c0-20.5-9.3-26.6-18.8-26.6
				c-9.4,0-14.6,6-17,10.6v43.3C501.7,139.5,506.5,140.1,509.5,140.1z"/>
			<path class="st15" d="M591.8,86.9c-2.5-0.8-5-1.1-7.5-1.1c-6.9,0-13.8,2.8-16.8,9.6v51.4h-7.3V79.4h5.4l1.6,6.9h0.5
				c3.1-4.4,9.4-7.9,16.9-7.9c3.4,0,5.6,0.4,7.1,0.8V86.9z"/>
			<path class="st15" d="M599.8,113.3c0-20.9,7.6-35.2,27.5-35.2c19.8,0,26.8,13.9,26.8,34.4c0,20.9-7.6,35.3-27.5,35.3
				C606.8,147.8,599.8,133.8,599.8,113.3z M627.3,141.1c14,0,19.3-9.1,19.3-27.8c0-19.1-6-28.4-20-28.4s-19.3,9-19.3,27.6
				C607.3,131.7,613.3,141.1,627.3,141.1z"/>
		</g>
		<linearGradient id="SVGID_1_" gradientUnits="userSpaceOnUse" x1="0" y1="80.9683" x2="204.3072" y2="80.9683">
			<stop  offset="0" style="stop-color:#8569D7"/>
			<stop  offset="0.412" style="stop-color:#6356C1"/>
			<stop  offset="0.7736" style="stop-color:#4C49B2"/>
			<stop  offset="1" style="stop-color:#4344AD"/>
		</linearGradient>
		<path class="st0" d="M186.9,63.6c-9.6,0-17.4,7.8-17.4,17.4v42.4c0,2.1-1.7,3.8-3.8,3.8c-2.1,0-3.8-1.7-3.8-3.8V38.6
			c0-21.3-17.3-38.6-38.6-38.6S84.7,17.3,84.7,38.6v84.7c0,2.1-1.7,3.8-3.8,3.8s-3.8-1.7-3.8-3.8V38.6C77.2,17.3,59.9,0,38.6,0
			S0,17.3,0,38.6V81c0,9.6,7.8,17.4,17.4,17.4S34.8,90.6,34.8,81V38.6c0-2.1,1.7-3.8,3.8-3.8c2.1,0,3.8,1.7,3.8,3.8v84.7
			c0,21.3,17.3,38.6,38.6,38.6s38.6-17.3,38.6-38.6V38.6c0-2.1,1.7-3.8,3.8-3.8s3.8,1.7,3.8,3.8v84.7c0,21.3,17.3,38.6,38.6,38.6
			s38.6-17.3,38.6-38.6V81C204.3,71.4,196.5,63.6,186.9,63.6z M189.2,85.2v38.2c0,11.5-8.2,21-19.1,23.1c-0.7,1.7-2.4,2.9-4.4,2.9
			s-3.7-1.2-4.4-2.9c-10.9-2.1-19.1-11.6-19.1-23.1V38.6c0-9.1-6.4-16.6-14.9-18.5c-0.9,1.2-2.3,2.1-3.9,2.1c-1.6,0-3.1-0.8-3.9-2.1
			c-8.5,1.8-14.9,9.4-14.9,18.5v84.7c0,11.5-8.2,21-19.1,23.1c-0.7,1.7-2.4,2.9-4.4,2.9s-3.7-1.2-4.4-2.9
			c-10.9-2.1-19.1-11.6-19.1-23.1V38.6c0-9.1-6.4-16.6-14.9-18.5c-0.9,1.2-2.3,2.1-3.9,2.1c-1.6,0-3.1-0.8-3.9-2.1
			c-8.5,1.8-14.9,9.4-14.9,18.5v38.2c1.5,0.8,2.5,2.4,2.5,4.2c0,2.6-2.1,4.8-4.8,4.8s-4.8-2.1-4.8-4.8c0-1.8,1-3.4,2.5-4.2V38.6
			c0-11.5,8.2-21,19.1-23.1c0.7-1.7,2.4-2.9,4.4-2.9c2,0,3.7,1.2,4.4,2.9c10.9,2.1,19.1,11.6,19.1,23.1v84.7
			c0,9.1,6.4,16.6,14.9,18.5c0.9-1.2,2.3-2.1,3.9-2.1s3.1,0.8,3.9,2.1c8.5-1.8,14.9-9.4,14.9-18.5V38.6c0-11.5,8.2-21,19.1-23.1
			c0.7-1.7,2.4-2.9,4.4-2.9s3.7,1.2,4.4,2.9c10.9,2.1,19.1,11.6,19.1,23.1v84.7c0,9.1,6.4,16.6,14.9,18.5c0.9-1.2,2.3-2.1,3.9-2.1
			s3.1,0.8,3.9,2.1c8.5-1.8,14.9-9.4,14.9-18.5V85.2c-1.5-0.8-2.5-2.4-2.5-4.2c0-2.6,2.1-4.8,4.8-4.8s4.8,2.1,4.8,4.8
			C191.7,82.8,190.7,84.3,189.2,85.2z"/>
	</g>
</g>
</svg>
